<svg width="16" height="18" viewBox="0 0 16 18" fill="none" xmlns="http://www.w3.org/2000/svg">
<path fill-rule="evenodd" clip-rule="evenodd" d="M5 7H4C3.44772 7 3 7.44772 3 8V14C3 14.5523 3.44772 15 4 15H12C12.5523 15 13 14.5523 13 14V8C13 7.44772 12.5523 7 12 7H11V6C11 4.34315 9.65685 3 8 3C6.34315 3 5 4.34315 5 6V7ZM6 7H10V6C10 4.89543 9.10457 4 8 4C6.89543 4 6 4.89543 6 6V7ZM6.5 11C6.5 10.1716 7.17157 9.5 8 9.5C8.82843 9.5 9.5 10.1716 9.5 11C9.5 11.8284 8.82843 12.5 8 12.5C7.17157 12.5 6.5 11.8284 6.5 11Z" fill="#002033" fill-opacity="0.6"/>
</svg>
